<svg xmlns="http://www.w3.org/2000/svg" width="539.84998" height="479.55057" viewBox="0 0 539.84998 479.55057" xmlns:xlink="http://www.w3.org/1999/xlink"><path d="m275.46981,479.53952H126.31625c-19.43462,0-35.24601-15.8112-35.24601-35.24601V59.49651c0-19.43484,15.81139-35.24602,35.24601-35.24602h149.15356c19.43486,0,35.24601,15.81118,35.24601,35.24602v384.797c0,19.43486-15.8112,35.24601-35.24601,35.24601Z" fill="#2f2e41" stroke-width="0"/><path d="m275.6218,470.02732H126.16421c-14.58268,0-26.44655-11.8641-26.44655-26.44657V58.04738c0-14.58247,11.86387-26.44655,26.44655-26.44655h149.45759c14.58247,0,26.44653,11.86408,26.44653,26.44655v385.53337c0,14.58247-11.8641,26.44657-26.44657,26.44657h.00004Z" fill="#fff" stroke-width="0"/><path d="m224.24118,56.67848h-47.56106c-5.48342,0-9.94458-4.46096-9.94458-9.94458s4.46118-9.94458,9.94458-9.94458h47.56106c5.48363,0,9.94458,4.46096,9.94458,9.94458s-4.46095,9.94458-9.94458,9.94458Z" fill="#2f2e41" stroke-width="0"/><rect x="265.85554" y="195.20355" width="8.1429" height="81.42908" fill="#00bfa6" stroke-width="0"/><rect x="252.21618" y="262.38253" width="8.1429" height="14.25008" fill="#00bfa6" stroke-width="0"/><rect x="238.5768" y="258.31107" width="8.1429" height="18.32154" fill="#00bfa6" stroke-width="0"/><rect x="224.93744" y="256.27534" width="8.1429" height="20.35725" fill="#00bfa6" stroke-width="0"/><rect x="211.29809" y="256.27534" width="8.1429" height="20.35725" fill="#00bfa6" stroke-width="0"/><rect x="197.65873" y="191.13211" width="8.1429" height="85.50052" fill="#00bfa6" stroke-width="0"/><rect x="185.44434" y="259.32895" width="8.1429" height="18.32154" fill="#00bfa6" stroke-width="0"/><rect x="171.19426" y="259.32895" width="8.1429" height="18.32154" fill="#00bfa6" stroke-width="0"/><rect x="144.72982" y="259.32895" width="8.1429" height="18.32154" fill="#00bfa6" stroke-width="0"/><rect x="156.94419" y="265.43612" width="8.1429" height="12.21435" fill="#00bfa6" stroke-width="0"/><path d="m0,477.86057c0,.94,1.07,1.69,2.41,1.69h535.03c1.33002,0,2.40997-.75,2.40997-1.69s-1.07001-1.69-2.40997-1.69H2.41c-1.33,0-2.41.75-2.41,1.69Z" fill="#2f2e43" stroke-width="0"/><path d="m313.68938,239.77317l9.16772-25.4631-14.86705-5.35273-9.16772,25.4631c-3.66499,1.65581-6.86257,5.06693-8.49579,9.60315-2.85771,7.9372.15064,16.28868,6.71934,18.65367,6.5687,2.36499,14.21024-2.1521,17.06795-10.08931,1.63322-4.53622,1.34379-9.2028-.42444-12.81479Z" fill="#e29295" stroke-width="0"/><polyline points="336.11367 104.45296 294.37413 228.78042 320.38312 237.51222 369.45707 116.81488" fill="#2f2e41" stroke-width="0"/><path d="m333.94202,255.75767c-.44272-.18937-.87871-.39446-1.30853-.61825-5.13004-2.66537-8.47512-7.45815-9.94372-14.24433-5.52472-25.54314-9.74355-101.00504-1.8561-119.44507,7.53743-17.62173,45.95738-56.77101,46.34899-57.31942l.25173-.35297,17.01822,12.5335c12.22261,9.0014,16.35805,25.4891,9.83428,39.20466-15.93923,33.51043-41.32068,95.9966-32.22858,137.98255l.07511.34641-.32593.13811c-.68203.28736-16.255,6.74102-27.86548,1.77481Z" fill="#2f2e41" stroke-width="0"/><polygon points="393.7464 155.59035 404.58516 194.7918 332.80284 193.93725 342.47332 158.15401 393.7464 155.59035" fill="#e29295" stroke-width="0"/><rect x="310.51275" y="439.19348" width="17.1735" height="22.63502" fill="#e29295" stroke-width="0"/><path d="m324.75504,477.45013h-36.50489c-3.12012,0-6.25566-.71447-9.06769-2.06621l-6.72982-3.23498c-1.39147-.66886-2.29059-2.09866-2.29059-3.64253,0-1.81058,1.21872-3.41234,2.96372-3.89522l13.88396-3.8418,23.75203-12.48467.01776.08995c.44421,2.24965,1.13244,5.6483,1.21999,5.85445,2.43577,2.79036,4.93798,4.07619,7.43718,3.82283,4.3592-.44194,7.25714-5.47568,7.28593-5.5265l.02204-.03887.04447.00454c1.02078.10564,1.77585.51734,2.24431,1.22366.99441,1.49946.38779,3.80868.28795,4.15699,1.19094,1.16523,1.72537,7.67238,1.76671,8.19759,1.72196,1.8252,2.54027,3.57989,2.43183,5.21531-.09476,1.42981-.88769,2.75764-2.35663,3.94677-1.76731,1.43074-4.04314,2.21867-6.40825,2.21867Z" fill="#2f2e41" stroke-width="0"/><rect x="427.28136" y="430.81828" width="17.1735" height="22.63502" transform="translate(-106.15198 139.34991) rotate(-16.22019)" fill="#e29295" stroke-width="0"/><path d="m448.82344,466.42287l-35.05183,10.19689c-2.99592.87154-6.20623,1.06136-9.28391.54891l-7.36557-1.22637c-1.52292-.25356-2.78563-1.3753-3.21688-2.85771-.50575-1.73851.21704-3.61694,1.7577-4.56803l12.25819-7.56708,19.31925-18.62237.04218.08141c1.05493,2.03602,2.6651,5.10715,2.80675,5.28064,3.11824,1.99891,5.88002,2.53462,8.20898,1.59324,4.06224-1.64201,5.43876-7.28486,5.4522-7.34169l.0103-.04347.04397-.00806c1.00966-.1837,1.84967.0007,2.49678.54805,1.37367,1.162,1.43623,3.54875,1.43766,3.91109,1.46901.78618,3.79981,6.88503,3.98621,7.3778,2.16326,1.27156,3.43913,2.72782,3.79182,4.32843.3084,1.39936-.08207,2.89583-1.16038,4.44795-1.29731,1.86745-3.26246,3.25972-5.53343,3.92037Z" fill="#2f2e41" stroke-width="0"/><path d="m406.29426,188.80994l-73.49141,1.7091s-44.65847,128.73057-42.94937,250.93141h61.30615l3.63975-141.85552,10.649,147.36177,80.78799-4.65169-39.94211-253.49506Z" fill="#2f2e41" stroke-width="0"/><path d="m392.04753,32.41202c0-15.41937-12.4999-27.91927-27.91927-27.91927s-27.91938,12.4999-27.91938,27.91927c0,12.50522,8.22214,23.08874,19.55475,26.64308l5.39728,35.66959,27.51463-22.92883s-5.94399-7.57121-9.13166-16.10817c7.53407-4.99983,12.50365-13.55578,12.50365-23.27568Z" fill="#e29295" stroke-width="0"/><path d="m393.33104,63.4977l-35.17961,11.29972-14.84366,33.95943-8.08446,14.82152c-3.68048,6.74755-2.47574,15.11331,2.95912,20.54818l5.12534,5.12534-7.14618,26.20267,66.6977-2.38206,4.23472-59.28604c.34951-4.89309-.26907-9.80707-1.82034-14.46089l-11.94262-35.82786Z" fill="#00bfa6" stroke-width="0"/><path d="m401.01176,69.09497s-1.30374,9.89144-13.38281,10.21446q-24.50246.65525-24.50246.65525s20.71302-50.40774,12.19612-44.72895c-8.5169,5.6788-31.22863-18.12847-31.22863-18.12847l-6.70146,12.56852s-16.01028-5.79765,1.73327-19.99464c0,0,21.1706-16.36745,43.64575-6.53876,22.47515,9.82869,18.24022,65.95259,18.24022,65.95259Z" fill="#2f2e41" stroke-width="0"/><path d="m414.76508,251.59457c-.48152,0-.96304-.01711-1.44623-.05383-5.76488-.43312-10.72529-3.52419-14.74435-9.18601-15.12489-21.31225-48.68064-89.03455-48.68064-109.09063,0-19.16607,19.92799-70.27022,20.07236-70.92845l.09263-.42352,20.57599,4.83084c14.77773,3.46932,25.06406,17.00215,24.45986,32.17816-1.47627,37.07868-.23867,104.51167,24.63261,139.53889l.20529.28895-.24535.25516c-.51407.53243-12.29419,12.59045-24.92219,12.59045Z" fill="#2f2e41" stroke-width="0"/><path d="m417.9085,236.35502l-4.74352-26.64424-15.55668,2.76959,4.74352,26.64424c-2.35202,3.26218-3.42394,7.81315-2.57888,12.55979,1.47862,8.30538,8.24921,14.04614,15.12261,12.82246,6.8734-1.22368,11.2467-8.94842,9.76808-17.2538-.84505-4.74664-3.42189-8.64801-6.75513-10.89804Z" fill="#e29295" stroke-width="0"/><polyline points="369.90248 107.86444 395.68441 236.45214 422.58464 231.05863 404.97048 101.96237" fill="#2f2e41" stroke-width="0"/></svg>